<svg width="54" height="54" viewBox="0 0 54 54" fill="none" xmlns="http://www.w3.org/2000/svg">
<path fill-rule="evenodd" clip-rule="evenodd" d="M26.9159 54C41.7811 54 53.8318 41.9117 53.8318 27C53.8318 12.0883 41.7811 0 26.9159 0C12.0507 0 0 12.0883 0 27C0 41.9117 12.0507 54 26.9159 54ZM36.4327 21.0815C37.4313 20.0798 37.4313 18.4558 36.4327 17.4541C35.4341 16.4524 33.8151 16.4524 32.8165 17.4541L26.9184 23.3706L21.0165 17.4541C20.0179 16.4524 18.3989 16.4524 17.4003 17.4541C16.4017 18.4558 16.4017 20.0798 17.4003 21.0815L23.3022 26.9981L17.4003 32.9185C16.4017 33.9202 16.4017 35.5443 17.4003 36.5459C18.3989 37.5476 20.0179 37.5476 21.0165 36.5459L26.9165 30.6236L32.8165 36.5459C33.8151 37.5476 35.4341 37.5476 36.4327 36.5459C37.4313 35.5443 37.4313 33.9202 36.4327 32.9185L30.5346 26.9981L36.4327 21.0815Z" fill="#D03050"/>
</svg>
