<svg width="54" height="54" viewBox="0 0 54 54" fill="none" xmlns="http://www.w3.org/2000/svg">
<path fill-rule="evenodd" clip-rule="evenodd" d="M54 27C54 12.0883 41.9117 0 27 0C12.0883 0 0 12.0883 0 27C0 41.9117 12.0883 54 27 54C41.9117 54 54 41.9117 54 27ZM24.3 39.5C24.3 40.0523 24.7477 40.5 25.3 40.5H28.7C29.2523 40.5 29.7 40.0523 29.7 39.5V22.6C29.7 22.0477 29.2523 21.6 28.7 21.6H25.3C24.7477 21.6 24.3 22.0477 24.3 22.6V39.5ZM27 13.5C28.4912 13.5 29.7 14.7088 29.7 16.2C29.7 17.6912 28.4912 18.9 27 18.9C25.5088 18.9 24.3 17.6912 24.3 16.2C24.3 14.7088 25.5088 13.5 27 13.5Z" fill="#D03050"/>
</svg>
