<svg width="22" height="22" viewBox="0 0 22 22" fill="none" xmlns="http://www.w3.org/2000/svg">
<circle cx="10.8333" cy="10.8333" r="10.8333" fill="#B50000"/>
<path fill-rule="evenodd" clip-rule="evenodd" d="M14.6629 7.00322C15.0648 7.40513 15.0648 8.05677 14.6629 8.45868L12.289 10.8326L14.6629 13.2081C15.0648 13.61 15.0648 14.2616 14.6629 14.6635C14.261 15.0655 13.6094 15.0655 13.2075 14.6635L10.8328 12.2873L8.45807 14.6635C8.05615 15.0655 7.40452 15.0655 7.00261 14.6635C6.60069 14.2616 6.60069 13.61 7.00261 13.2081L9.37807 10.8326L7.00261 8.45868C6.60069 8.05677 6.60069 7.40513 7.00261 7.00322C7.40452 6.6013 8.05615 6.6013 8.45807 7.00322L10.8335 9.37715L13.2075 7.00322C13.6094 6.6013 14.261 6.6013 14.6629 7.00322Z" fill="white"/>
</svg>
