<svg width="54" height="54" viewBox="0 0 54 54" fill="none" xmlns="http://www.w3.org/2000/svg">
<g clip-path="url(#clip0_477_2188)">
<path fill-rule="evenodd" clip-rule="evenodd" d="M26.9765 54C41.8752 54 53.953 41.9117 53.953 27C53.953 12.0883 41.8752 0 26.9765 0C12.0778 0 0 12.0883 0 27C0 41.9117 12.0778 54 26.9765 54ZM24.1389 32.714L36.6221 20.2199C37.2077 19.6338 38.157 19.6338 38.7425 20.2199L40.2464 21.7251C40.832 22.3111 40.832 23.2613 40.2464 23.8473L26.703 37.4026L25.1991 38.9078C24.6136 39.4938 23.6642 39.4938 23.0787 38.9078L21.5748 37.4026L13.754 29.5749C13.1684 28.9889 13.1684 28.0387 13.754 27.4527L15.2579 25.9474C15.8434 25.3614 16.7927 25.3614 17.3782 25.9474L24.1389 32.714Z" fill="#18A058"/>
</g>
<defs>
<clipPath id="clip0_477_2188">
<rect width="54" height="54" fill="white"/>
</clipPath>
</defs>
</svg>
