<svg width="61" height="59" viewBox="0 0 61 59" fill="none" xmlns="http://www.w3.org/2000/svg">
<path fill-rule="evenodd" clip-rule="evenodd" d="M50.3138 7.34375H9.95518C7.23091 7.34375 5.02246 9.48825 5.02246 12.1336V14.7463C5.02246 16.9387 6.53939 18.7871 8.60968 19.3558V46.5337L8.61083 46.6345C8.67613 49.9529 11.4569 52.62 14.8823 52.6299L45.3809 52.6299L45.4846 52.6288C48.902 52.5654 51.6486 49.8651 51.6589 46.5389L51.6589 19.3559C53.7294 18.7873 55.2465 16.9389 55.2465 14.7463V12.1336C55.2465 9.48825 53.038 7.34375 50.3138 7.34375ZM48.0714 19.5361H12.1971L12.1971 46.5285C12.2015 47.9581 13.382 49.1186 14.8433 49.1459L14.8877 49.1464L45.3755 49.1464C46.8477 49.1421 48.0429 47.9958 48.0709 46.5768L48.0714 46.5337V19.5361ZM9.9547 10.8273H50.3133C51.0563 10.8273 51.6586 11.4121 51.6586 12.1336V14.7463C51.6586 15.4677 51.0563 16.0526 50.3133 16.0526H9.9547C9.21172 16.0526 8.60942 15.4677 8.60942 14.7463V12.1336C8.60942 11.4121 9.21172 10.8273 9.9547 10.8273ZM36.0422 33.9804C36.7426 33.3002 37.8784 33.3002 38.5789 33.9804C39.2696 34.6511 39.2792 35.7329 38.6076 36.415L38.5789 36.4436L31.404 43.4107C30.7132 44.0815 29.5993 44.0908 28.8967 43.4387L28.8673 43.4107L21.6925 36.4436C20.992 35.7634 20.992 34.6606 21.6925 33.9804C22.3832 33.3096 23.4972 33.3003 24.1997 33.9524L24.2291 33.9804L28.341 37.9732V26.5029C28.341 25.541 29.1441 24.7612 30.1347 24.7612C31.1136 24.7612 31.9093 25.5225 31.9281 26.4687L31.9284 26.5029V37.975L36.0422 33.9804Z" fill="black" fill-opacity="0.38"/>
</svg>
